<svg width="80" height="80" viewBox="0 0 80 80" fill="none" xmlns="http://www.w3.org/2000/svg">
<g id="Frame" clip-path="url(#clip0_48_228)">
<path id="Vector" d="M16.6666 70V16.6667C16.6666 14.8986 17.369 13.2029 18.6192 11.9526C19.8695 10.7024 21.5652 10 23.3333 10H56.6666C58.4347 10 60.1304 10.7024 61.3807 11.9526C62.6309 13.2029 63.3333 14.8986 63.3333 16.6667V70L53.3333 63.3333L46.6666 70L40 63.3333L33.3333 70L26.6666 63.3333L16.6666 70Z" stroke="white" stroke-width="4" stroke-linecap="round" stroke-linejoin="round"/>
<path id="Vector_2" d="M46.6667 26.6666H38.3334C37.0073 26.6666 35.7355 27.1934 34.7978 28.1311C33.8602 29.0688 33.3334 30.3405 33.3334 31.6666C33.3334 32.9927 33.8602 34.2645 34.7978 35.2022C35.7355 36.1398 37.0073 36.6666 38.3334 36.6666H41.6667C42.9928 36.6666 44.2646 37.1934 45.2022 38.1311C46.1399 39.0688 46.6667 40.3405 46.6667 41.6666C46.6667 42.9927 46.1399 44.2645 45.2022 45.2022C44.2646 46.1398 42.9928 46.6666 41.6667 46.6666H33.3334M40 46.6666V51.6666M40 21.6666V26.6666" stroke="white" stroke-width="4" stroke-linecap="round" stroke-linejoin="round"/>
</g>
<defs>
<clipPath id="clip0_48_228">
<rect width="80" height="80" fill="white"/>
</clipPath>
</defs>
</svg>
