<svg width="80" height="80" viewBox="0 0 80 80" fill="none" xmlns="http://www.w3.org/2000/svg">
<g id="Frame" clip-path="url(#clip0_47_216)">
<path id="Vector" d="M13.3333 20C13.3333 18.2319 14.0357 16.5362 15.286 15.286C16.5362 14.0358 18.2319 13.3334 20 13.3334H26.6667C28.4348 13.3334 30.1305 14.0358 31.3807 15.286C32.631 16.5362 33.3333 18.2319 33.3333 20V23.3334C33.3333 25.1015 32.631 26.7972 31.3807 28.0474C30.1305 29.2977 28.4348 30 26.6667 30H20C18.2319 30 16.5362 29.2977 15.286 28.0474C14.0357 26.7972 13.3333 25.1015 13.3333 23.3334V20Z" stroke="white" stroke-width="4" stroke-linecap="round" stroke-linejoin="round"/>
<path id="Vector_2" d="M13.3333 50C13.3333 48.2319 14.0357 46.5362 15.286 45.286C16.5362 44.0358 18.2319 43.3334 20 43.3334H26.6667C28.4348 43.3334 30.1305 44.0358 31.3807 45.286C32.631 46.5362 33.3333 48.2319 33.3333 50V60C33.3333 61.7682 32.631 63.4638 31.3807 64.7141C30.1305 65.9643 28.4348 66.6667 26.6667 66.6667H20C18.2319 66.6667 16.5362 65.9643 15.286 64.7141C14.0357 63.4638 13.3333 61.7682 13.3333 60V50Z" stroke="white" stroke-width="4" stroke-linecap="round" stroke-linejoin="round"/>
<path id="Vector_3" d="M46.6667 20C46.6667 18.2319 47.3691 16.5362 48.6193 15.286C49.8696 14.0358 51.5652 13.3334 53.3334 13.3334H60C61.7681 13.3334 63.4638 14.0358 64.7141 15.286C65.9643 16.5362 66.6667 18.2319 66.6667 20V60C66.6667 61.7681 65.9643 63.4638 64.7141 64.7141C63.4638 65.9643 61.7681 66.6667 60 66.6667H53.3334C51.5652 66.6667 49.8696 65.9643 48.6193 64.7141C47.3691 63.4638 46.6667 61.7681 46.6667 60V20Z" stroke="white" stroke-width="4" stroke-linecap="round" stroke-linejoin="round"/>
</g>
<defs>
<clipPath id="clip0_47_216">
<rect width="80" height="80" fill="white"/>
</clipPath>
</defs>
</svg>
