<svg width="130" height="48" viewBox="0 0 130 48" fill="none" xmlns="http://www.w3.org/2000/svg">
<circle cx="27.2" cy="19.2" r="3.2" fill="#00FFB1"/>
<circle cx="38.24" cy="14.24" r="3.2" fill="#00FFB1"/>
<path fill-rule="evenodd" clip-rule="evenodd" d="M9.18768 0.155896C7.97346 0.650676 7.26903 1.70837 7.26903 3.03716C7.26903 4.82875 8.52559 6.09037 10.3098 6.09037C10.9341 6.09037 11.0386 6.15288 11.5586 6.83889L12.1262 7.58756L10.4442 9.28949C7.24897 12.523 5.21532 16.3217 4.28056 20.8031C4.00047 22.1456 3.87898 22.4524 3.52037 22.7223C2.52005 23.4753 1.38482 24.6809 0.95259 25.4493C0.0895542 26.9838 -0.227981 29.2263 0.16965 30.9801C0.781974 33.6824 3.14628 36.0184 5.88925 36.6318C6.79763 36.8349 6.80268 36.8392 7.70047 38.2154C8.95482 40.1378 11.689 42.8865 13.6771 44.2238C17.3183 46.6731 20.8672 47.8226 25.2828 47.983C30.1335 48.1592 34.3581 46.9698 38.31 44.3148C42.9257 41.214 46.242 36.5068 47.6246 31.0936C48.1665 28.9724 48.1259 28.742 47.4759 30.2485C45.5687 34.6698 41.7034 38.2074 37.1203 39.7261C32.8283 41.1484 27.4135 40.636 23.7496 38.4607C23.3866 38.245 23.0255 38.0687 22.9473 38.0687C22.8689 38.0687 22.2417 38.3959 21.5536 38.7957C20.0885 39.6471 17.991 40.3684 16.1496 40.6545C14.9904 40.8346 14.812 40.8287 14.5894 40.6024C14.3597 40.3688 14.4138 40.2485 15.2182 39.2027C16.8359 37.0999 17.6956 35.1891 17.6956 33.6972C17.6956 33.0864 17.5574 32.6534 17.0752 31.7539C14.7886 27.4879 14.2755 22.9177 15.5724 18.3659C16.8403 13.9151 20.0324 9.9845 24.103 7.86171C28.8993 5.36049 34.4317 5.30264 39.3386 7.70262C41.2134 8.61939 41.0427 8.38028 38.6361 6.7174C36.0751 4.94783 33.525 3.84353 30.4426 3.16925C28.1384 2.66515 23.9985 2.66515 21.6943 3.16925C19.0912 3.73859 16.4079 4.80802 14.4867 6.04168C14.1463 6.26022 13.8175 6.37865 13.7561 6.3049C13.6946 6.23114 13.4292 5.88146 13.1662 5.52794L12.6878 4.88515L12.9758 4.24237C13.1343 3.88884 13.2642 3.3465 13.2646 3.03716C13.2659 1.91936 12.342 0.545098 11.3267 0.15493C10.7882 -0.0520456 9.69684 -0.0515616 9.18768 0.155896Z" fill="#5C33FF"/>
<path d="M58.84 23.6C58.84 21.952 59.208 20.48 59.944 19.184C60.696 17.872 61.712 16.856 62.992 16.136C64.288 15.4 65.736 15.032 67.336 15.032C69.208 15.032 70.848 15.512 72.256 16.472C73.664 17.432 74.648 18.76 75.208 20.456H71.344C70.96 19.656 70.416 19.056 69.712 18.656C69.024 18.256 68.224 18.056 67.312 18.056C66.336 18.056 65.464 18.288 64.696 18.752C63.944 19.2 63.352 19.84 62.92 20.672C62.504 21.504 62.296 22.48 62.296 23.6C62.296 24.704 62.504 25.68 62.92 26.528C63.352 27.36 63.944 28.008 64.696 28.472C65.464 28.92 66.336 29.144 67.312 29.144C68.224 29.144 69.024 28.944 69.712 28.544C70.416 28.128 70.96 27.52 71.344 26.72H75.208C74.648 28.432 73.664 29.768 72.256 30.728C70.864 31.672 69.224 32.144 67.336 32.144C65.736 32.144 64.288 31.784 62.992 31.064C61.712 30.328 60.696 29.312 59.944 28.016C59.208 26.72 58.84 25.248 58.84 23.6ZM79.7819 17.12C79.1899 17.12 78.6939 16.936 78.2939 16.568C77.9099 16.184 77.7179 15.712 77.7179 15.152C77.7179 14.592 77.9099 14.128 78.2939 13.76C78.6939 13.376 79.1899 13.184 79.7819 13.184C80.3739 13.184 80.8619 13.376 81.2459 13.76C81.6459 14.128 81.8459 14.592 81.8459 15.152C81.8459 15.712 81.6459 16.184 81.2459 16.568C80.8619 16.936 80.3739 17.12 79.7819 17.12ZM81.4379 18.704V32H78.0779V18.704H81.4379ZM88.1176 20.768C88.5496 20.064 89.1096 19.512 89.7976 19.112C90.5016 18.712 91.3016 18.512 92.1976 18.512V22.04H91.3096C90.2536 22.04 89.4536 22.288 88.9096 22.784C88.3816 23.28 88.1176 24.144 88.1176 25.376V32H84.7576V18.704H88.1176V20.768ZM96.1647 17.12C95.5727 17.12 95.0767 16.936 94.6767 16.568C94.2927 16.184 94.1007 15.712 94.1007 15.152C94.1007 14.592 94.2927 14.128 94.6767 13.76C95.0767 13.376 95.5727 13.184 96.1647 13.184C96.7567 13.184 97.2447 13.376 97.6287 13.76C98.0287 14.128 98.2287 14.592 98.2287 15.152C98.2287 15.712 98.0287 16.184 97.6287 16.568C97.2447 16.936 96.7567 17.12 96.1647 17.12ZM97.8207 18.704V32H94.4607V18.704H97.8207ZM117.131 28.808H110.459L109.355 32H105.827L111.851 15.224H115.763L121.787 32H118.235L117.131 28.808ZM116.219 26.12L113.795 19.112L111.371 26.12H116.219ZM127.399 15.248V32H124.039V15.248H127.399Z" fill="white"/>
</svg>
