<svg width="24" height="24" viewBox="0 0 24 24" fill="none" xmlns="http://www.w3.org/2000/svg">
<g id="Frame">
<path id="Vector" d="M19.0391 19.0433H16.0775V14.4024C16.0775 13.2958 16.055 11.8717 14.5341 11.8717C12.99 11.8717 12.7541 13.0759 12.7541 14.3208V19.0433H9.79246V9.49999H12.6375V10.8008H12.6758C13.0733 10.0508 14.04 9.25916 15.4841 9.25916C18.485 9.25916 19.04 11.2342 19.04 13.805L19.0391 19.0433ZM6.4475 8.19416C5.49416 8.19416 4.72833 7.42249 4.72833 6.47333C4.72833 5.525 5.495 4.75416 6.4475 4.75416C7.39749 4.75416 8.16749 5.525 8.16749 6.47333C8.16749 7.42249 7.39666 8.19416 6.4475 8.19416ZM7.93249 19.0433H4.9625V9.49999H7.93249V19.0433ZM20.5208 2H3.47583C2.66 2 2 2.645 2 3.44083V20.5592C2 21.3558 2.66 22 3.47583 22H20.5183C21.3333 22 22 21.3558 22 20.5592V3.44083C22 2.645 21.3333 2 20.5183 2H20.5208Z" fill="#6F6F6F"/>
</g>
</svg>
