<svg width="60" height="60" viewBox="0 0 60 60" fill="none" xmlns="http://www.w3.org/2000/svg">
<g id="Frame" clip-path="url(#clip0_73_518)">
<path id="Vector" d="M30 32.5C31.9891 32.5 33.8968 31.7098 35.3033 30.3033C36.7098 28.8968 37.5 26.9891 37.5 25C37.5 23.0109 36.7098 21.1032 35.3033 19.6967C33.8968 18.2902 31.9891 17.5 30 17.5C28.0109 17.5 26.1032 18.2902 24.6967 19.6967C23.2902 21.1032 22.5 23.0109 22.5 25C22.5 26.9891 23.2902 28.8968 24.6967 30.3033C26.1032 31.7098 28.0109 32.5 30 32.5Z" stroke="white" stroke-width="3" stroke-linecap="round" stroke-linejoin="round"/>
<path id="Vector_2" d="M15.5024 46.86C16.1629 44.863 17.4363 43.1251 19.1414 41.8935C20.8465 40.6619 22.8965 39.9993 24.9999 40H34.9999C37.102 39.9993 39.1508 40.661 40.8553 41.8912C42.5598 43.1213 43.8333 44.8573 44.4949 46.8525" stroke="white" stroke-width="3" stroke-linecap="round" stroke-linejoin="round"/>
<path id="Vector_3" d="M49.6875 15.675C51.4375 16.67 52.5125 18.5325 52.5 20.545V38.7549C52.5 40.7774 51.3925 42.6425 49.605 43.625L32.73 54.2999C31.8934 54.7593 30.9544 55.0001 30 55.0001C29.0456 55.0001 28.1066 54.7593 27.27 54.2999L10.395 43.625C9.52042 43.147 8.79031 42.4429 8.28103 41.5861C7.77175 40.7294 7.502 39.7516 7.5 38.7549V20.5425C7.5 18.52 8.6075 16.6575 10.395 15.675L27.27 5.72495C28.1313 5.25004 29.0989 5.00098 30.0825 5.00098C31.0661 5.00098 32.0337 5.25004 32.895 5.72495L49.77 15.675H49.6875Z" stroke="white" stroke-width="3" stroke-linecap="round" stroke-linejoin="round"/>
</g>
<defs>
<clipPath id="clip0_73_518">
<rect width="60" height="60" fill="white"/>
</clipPath>
</defs>
</svg>
